<?xml version="1.0" encoding="UTF-8"?>
<svg xmlns="http://www.w3.org/2000/svg"
     width="1456" height="1024" viewBox="0 0 1456 1024"
     role="img" aria-labelledby="title desc">
  <title id="title">Borato Desire — first full SVG reconstruction</title>
  <desc id="desc">Editable vector mockup of a neon synthwave audio plugin interface.</desc>

  <defs>
    <!-- Core surfaces -->
    <linearGradient id="bgGradient" x1="0" y1="0" x2="0" y2="1">
      <stop offset="0" stop-color="#090b14"/>
      <stop offset="0.54" stop-color="#03050b"/>
      <stop offset="1" stop-color="#080911"/>
    </linearGradient>

    <linearGradient id="metalFrame" x1="0" y1="0" x2="1" y2="1">
      <stop offset="0" stop-color="#3a3d4b"/>
      <stop offset="0.09" stop-color="#11131b"/>
      <stop offset="0.50" stop-color="#05070d"/>
      <stop offset="0.89" stop-color="#252936"/>
      <stop offset="1" stop-color="#07080d"/>
    </linearGradient>

    <linearGradient id="panelGradient" x1="0" y1="0" x2="0" y2="1">
      <stop offset="0" stop-color="#171923"/>
      <stop offset="0.45" stop-color="#0c0e16"/>
      <stop offset="1" stop-color="#07080d"/>
    </linearGradient>

    <linearGradient id="displayGradient" x1="0" y1="0" x2="1" y2="1">
      <stop offset="0" stop-color="#130817"/>
      <stop offset="0.48" stop-color="#080611"/>
      <stop offset="1" stop-color="#040a12"/>
    </linearGradient>

    <radialGradient id="clubGlow" cx="56%" cy="40%" r="72%">
      <stop offset="0" stop-color="#9d124e" stop-opacity="0.34"/>
      <stop offset="0.35" stop-color="#34104a" stop-opacity="0.22"/>
      <stop offset="0.72" stop-color="#0b1734" stop-opacity="0.18"/>
      <stop offset="1" stop-color="#03050c" stop-opacity="0"/>
    </radialGradient>

    <linearGradient id="spectrumGradient" x1="0" y1="0" x2="1" y2="0">
      <stop offset="0" stop-color="#c81888"/>
      <stop offset="0.45" stop-color="#ff2e92"/>
      <stop offset="0.56" stop-color="#7d4fda"/>
      <stop offset="1" stop-color="#22cfff"/>
    </linearGradient>

    <linearGradient id="meterGradient" x1="0" y1="1" x2="0" y2="0">
      <stop offset="0" stop-color="#24d6ff"/>
      <stop offset="0.72" stop-color="#24d6ff"/>
      <stop offset="0.86" stop-color="#ff3c9d"/>
      <stop offset="1" stop-color="#ff68b6"/>
    </linearGradient>

    <radialGradient id="knobFace" cx="38%" cy="29%" r="78%">
      <stop offset="0" stop-color="#575b68"/>
      <stop offset="0.08" stop-color="#292c35"/>
      <stop offset="0.52" stop-color="#10121a"/>
      <stop offset="0.78" stop-color="#05060a"/>
      <stop offset="1" stop-color="#292c36"/>
    </radialGradient>

    <linearGradient id="chrome" x1="0" y1="0" x2="1" y2="1">
      <stop offset="0" stop-color="#eeeeff"/>
      <stop offset="0.16" stop-color="#777990"/>
      <stop offset="0.35" stop-color="#20232f"/>
      <stop offset="0.58" stop-color="#c7c8d3"/>
      <stop offset="0.78" stop-color="#333644"/>
      <stop offset="1" stop-color="#9094a9"/>
    </linearGradient>

    <linearGradient id="pinkArc" x1="0" y1="0" x2="1" y2="0">
      <stop offset="0" stop-color="#a51d6c"/>
      <stop offset="0.48" stop-color="#ff3f9c"/>
      <stop offset="1" stop-color="#ff9bd1"/>
    </linearGradient>

    <!-- Browser-preview effects -->

    <pattern id="meterSegments" width="18" height="8" patternUnits="userSpaceOnUse">
      <rect width="18" height="5" rx="1" fill="url(#meterGradient)"/>
    </pattern>

    <clipPath id="displayClip">
      <rect x="160" y="105" width="1136" height="594" rx="44"/>
    </clipPath>

    <clipPath id="inputMeterClip">
      <rect x="69" y="286" width="43" height="355" rx="4"/>
    </clipPath>

    <clipPath id="outputMeterClip">
      <rect x="1348" y="286" width="43" height="355" rx="4"/>
    </clipPath>

    <!-- Reusable knob symbols -->
    <g id="smallKnobSymbol">
      <circle cx="0" cy="0" r="55" fill="#05060a" stroke="#2a2c37" stroke-width="3"/>
      <circle cx="0" cy="0" r="50" fill="none" stroke="url(#chrome)" stroke-width="3.4" opacity="0.92"/>
      <circle cx="0" cy="0" r="44" fill="url(#knobFace)" stroke="#0b0d14" stroke-width="2"/>
      <circle cx="-12" cy="-12" r="23" fill="#ffffff" opacity="0.035"/>
      <path d="M 0 -39 L 0 -54" stroke="#ff48a5" stroke-width="4.5" stroke-linecap="round"/>
      <path d="M -35 30 A 46 46 0 0 1 35 -30" fill="none" stroke="#8f53ff" stroke-width="3" opacity="0.88"/>
      <path d="M -37 34 A 50 50 0 0 1 37 -34" fill="none" stroke="#ff3f9d" stroke-width="2" opacity="0.35"/>
    </g>

    <g id="largeKnobSymbol">
      <circle cx="0" cy="0" r="118" fill="#05060a" stroke="#1d1f2a" stroke-width="6"/>
      <circle cx="0" cy="0" r="107" fill="none" stroke="url(#chrome)" stroke-width="4.5"/>
      <circle cx="0" cy="0" r="94" fill="url(#knobFace)" stroke="#08090e" stroke-width="4"/>
      <circle cx="-22" cy="-22" r="48" fill="#ffffff" opacity="0.035"/>
      <path d="M 0 -75 L 0 -105" stroke="#ff58ad" stroke-width="7" stroke-linecap="round"/>
      <path d="M -82 70 A 108 108 0 1 1 80 72" fill="none" stroke="url(#pinkArc)" stroke-width="11" stroke-linecap="round"/>
      <path d="M -78 66 A 103 103 0 1 1 76 67" fill="none" stroke="#ff66b4" stroke-width="4" opacity="0.62"/>
    </g>
  </defs>

  <!-- ==================== SHELL ==================== -->
  <g id="shell">
    <rect width="1456" height="1024" fill="#020309"/>
    <rect x="4" y="4" width="1448" height="1016" rx="30" fill="url(#metalFrame)" stroke="#5f6373" stroke-width="2"/>
    <rect x="9" y="9" width="1438" height="1006" rx="25" fill="url(#bgGradient)" stroke="#151721" stroke-width="2"/>
    <rect x="13" y="13" width="1430" height="998" rx="22" fill="none" stroke="#74788a" stroke-opacity="0.25"/>
  </g>

  <!-- ==================== TOOLBAR ==================== -->
  <g id="toolbar">
    <rect x="16" y="18" width="1424" height="70" rx="14" fill="url(#panelGradient)" stroke="#323644" stroke-width="1.5"/>
    <path d="M 17 26 H 1439" stroke="#555a6b" stroke-opacity="0.42"/>
    <text x="47" y="52" fill="#ff62b4" font-family="Arial, Helvetica, sans-serif"
          font-size="22" font-weight="600" letter-spacing="5">BORATO</text>
    <text x="49" y="70" fill="#ff88c8" font-family="Arial, Helvetica, sans-serif"
          font-size="11" font-weight="500" letter-spacing="8">COMPANY</text>

    <rect x="390" y="27" width="460" height="47" rx="9" fill="#05060b" stroke="#20232d"/>
    <rect x="390" y="27" width="60" height="47" rx="9" fill="#07080d" stroke="#20232d"/>
    <path d="M 425 41 L 414 50 L 425 59" fill="none" stroke="#f0edf5" stroke-width="2.5"
          stroke-linecap="round" stroke-linejoin="round"/>
    <rect x="790" y="27" width="60" height="47" rx="9" fill="#07080d" stroke="#20232d"/>
    <path d="M 815 41 L 826 50 L 815 59" fill="none" stroke="#f0edf5" stroke-width="2.5"
          stroke-linecap="round" stroke-linejoin="round"/>
    <text x="620" y="49" fill="#ff5bab" text-anchor="middle"
          font-family="Arial, Helvetica, sans-serif" font-size="16">Late Night Confessions</text>
    <g fill="#514d60">
      <circle cx="568" cy="64" r="3"/><circle cx="581" cy="64" r="3"/><circle cx="594" cy="64" r="3"/>
      <circle cx="607" cy="64" r="3"/><circle cx="620" cy="64" r="3"/>
      <circle cx="633" cy="64" r="3"/><circle cx="646" cy="64" r="3"/>
    </g>
    <circle cx="646" cy="64" r="3.6" fill="#ff3c9d"/>

    <rect x="884" y="27" width="66" height="47" rx="9" fill="#0a0b12" stroke="#252834"/>
    <text x="917" y="57" fill="#ff69b9" text-anchor="middle"
          font-family="Arial, Helvetica, sans-serif" font-size="20">A</text>
    <text x="976" y="57" fill="#797583" text-anchor="middle"
          font-family="Arial, Helvetica, sans-serif" font-size="20">/</text>
    <text x="1015" y="57" fill="#a8a4b2" text-anchor="middle"
          font-family="Arial, Helvetica, sans-serif" font-size="20">B</text>

    <rect x="1074" y="27" width="78" height="47" rx="8" fill="#0b0c13" stroke="#232631"/>
    <text x="1114" y="58" fill="#c7c4cf" text-anchor="middle" font-size="29" font-family="Arial">↶</text>
    <rect x="1152" y="27" width="78" height="47" rx="8" fill="#0b0c13" stroke="#232631"/>
    <text x="1192" y="58" fill="#c7c4cf" text-anchor="middle" font-size="29" font-family="Arial">↷</text>

    <g transform="translate(1383 50)" stroke="#dedbe4" stroke-width="2.2" stroke-linecap="round">
      <line x1="-12" y1="-8" x2="12" y2="-8"/>
      <line x1="-12" y1="0" x2="12" y2="0"/>
      <line x1="-12" y1="8" x2="12" y2="8"/>
    </g>
  </g>

  <!-- ==================== SIDE METER PANELS ==================== -->
  <g id="meter-panels">
    <rect x="16" y="101" width="132" height="607" rx="13" fill="url(#panelGradient)" stroke="#313543" stroke-width="1.5"/>
    <rect x="1308" y="101" width="132" height="607" rx="13" fill="url(#panelGradient)" stroke="#313543" stroke-width="1.5"/>

    <text x="82" y="149" text-anchor="middle" fill="#f2f0f7" font-size="17" font-family="Arial">INPUT</text>
    <text x="1374" y="149" text-anchor="middle" fill="#f2f0f7" font-size="17" font-family="Arial">OUTPUT</text>
    <text x="82" y="177" text-anchor="middle" fill="#c3bfcb" font-size="14" font-family="Arial">L   R</text>
    <text x="1374" y="177" text-anchor="middle" fill="#c3bfcb" font-size="14" font-family="Arial">L   R</text>

    <!-- scales -->
    <g fill="#bebac6" font-family="Arial" font-size="12">
      <text x="32" y="202">+12</text><text x="32" y="248">+6</text><text x="36" y="297">0</text>
      <text x="32" y="345">-6</text><text x="26" y="392">-12</text><text x="26" y="439">-18</text>
      <text x="26" y="486">-24</text><text x="26" y="533">-30</text><text x="26" y="580">-36</text>
      <text x="26" y="626">-48</text><text x="26" y="650">-60</text>

      <text x="1405" y="202">+12</text><text x="1405" y="248">+6</text><text x="1405" y="297">0</text>
      <text x="1405" y="345">-6</text><text x="1398" y="392">-12</text><text x="1398" y="439">-18</text>
      <text x="1398" y="486">-24</text><text x="1398" y="533">-30</text><text x="1398" y="580">-36</text>
      <text x="1398" y="626">-48</text><text x="1398" y="650">-60</text>
    </g>

    <rect x="69" y="197" width="43" height="444" rx="4" fill="#070912" stroke="#20232c"/>
    <rect x="1348" y="197" width="43" height="444" rx="4" fill="#070912" stroke="#20232c"/>

    <!-- static meter levels; these groups are future JUCE paint specs -->
    <g id="input-meter-level-juce-paint" clip-path="url(#inputMeterClip)">
      <rect x="71" y="270" width="18" height="372" fill="url(#meterSegments)"/>
      <rect x="93" y="286" width="18" height="356" fill="url(#meterSegments)"/>
    </g>
    <g id="output-meter-level-juce-paint" clip-path="url(#outputMeterClip)">
      <rect x="1350" y="257" width="18" height="385" fill="url(#meterSegments)"/>
      <rect x="1372" y="270" width="18" height="372" fill="url(#meterSegments)"/>
    </g>

    <text x="82" y="666" text-anchor="middle" fill="#bcb7c5" font-family="Arial" font-size="13">-1.8   -1.6</text>
    <text x="82" y="693" text-anchor="middle" fill="#bcb7c5" font-family="Arial" font-size="13">dB</text>
    <text x="1374" y="666" text-anchor="middle" fill="#bcb7c5" font-family="Arial" font-size="13">-1.2   -1.1</text>
    <text x="1374" y="693" text-anchor="middle" fill="#bcb7c5" font-family="Arial" font-size="13">dB</text>
  </g>

  <!-- ==================== MAIN DISPLAY ==================== -->
  <g id="main-display">
    <rect x="156" y="101" width="1144" height="607" rx="47" fill="#03040a" stroke="#222431" stroke-width="6"/>
    <rect x="160" y="105" width="1136" height="594" rx="44" fill="url(#displayGradient)" stroke="#41304d" stroke-width="1.5"/>
    <g clip-path="url(#displayClip)">
      <rect x="160" y="105" width="1136" height="594" fill="url(#clubGlow)"/>
      <rect x="160" y="105" width="1136" height="594" fill="#ffffff" opacity="0.025"/>

      <!-- abstract East-European 80s club background -->
      <g id="club-background" opacity="0.46">
        <rect x="897" y="118" width="35" height="420" fill="#ff2a88" opacity="0.14"/>
        <rect x="949" y="118" width="8" height="420" fill="#bc3eff" opacity="0.22"/>
        <rect x="1002" y="118" width="14" height="420" fill="#ff2d9b" opacity="0.19"/>
        <rect x="1070" y="118" width="9" height="420" fill="#2b7dff" opacity="0.17"/>
        <rect x="1136" y="118" width="28" height="420" fill="#d62682" opacity="0.12"/>
        <path d="M 866 590 L 915 305 L 973 590 Z" fill="#42224c" opacity="0.33"/>
        <path d="M 1050 590 L 1108 280 L 1186 590 Z" fill="#20183f" opacity="0.36"/>
        <ellipse cx="1100" cy="334" rx="104" ry="88" fill="none" stroke="#ff2f9b" stroke-width="9" opacity="0.26"/>
        <ellipse cx="1100" cy="334" rx="86" ry="72" fill="#240a24" opacity="0.26"/>
        <text x="1100" y="348" text-anchor="middle" fill="#ff54ad" font-size="42"
              font-family="Georgia, serif" font-style="italic" font-weight="bold">Desire</text>
      </g>

      <!-- title -->
      <text x="200" y="181" fill="url(#chrome)" font-family="Arial, Helvetica, sans-serif"
            font-size="51" font-weight="800" letter-spacing="4">BORATO</text>
      <text x="203" y="248" fill="#ff3d9b" font-family="Arial, Helvetica, sans-serif"
            font-size="58" font-style="italic" font-weight="900" letter-spacing="-2"
            transform="skewX(-10)">DESIRE</text>
      <text x="207" y="301" fill="#b9b2bf" font-family="Arial, Helvetica, sans-serif"
            font-size="13" letter-spacing="3">SENSUAL SATURATION &amp;</text>
      <text x="207" y="323" fill="#b9b2bf" font-family="Arial, Helvetica, sans-serif"
            font-size="13" letter-spacing="3">HARMONIC ENHANCER</text>

      <!-- spectrum static reference -->
      <g id="spectrum-juce-paint" opacity="0.74">
        <g fill="url(#spectrumGradient)">
          <rect x="190" y="540" width="3" height="30"/><rect x="198" y="532" width="3" height="38"/>
          <rect x="206" y="515" width="3" height="55"/><rect x="214" y="503" width="3" height="67"/>
          <rect x="222" y="489" width="3" height="81"/><rect x="230" y="470" width="3" height="100"/>
          <rect x="238" y="455" width="3" height="115"/><rect x="246" y="441" width="3" height="129"/>
          <rect x="254" y="420" width="3" height="150"/><rect x="262" y="438" width="3" height="132"/>
          <rect x="270" y="452" width="3" height="118"/><rect x="278" y="468" width="3" height="102"/>
          <rect x="286" y="483" width="3" height="87"/><rect x="294" y="500" width="3" height="70"/>
          <rect x="302" y="510" width="3" height="60"/><rect x="310" y="520" width="3" height="50"/>
          <rect x="318" y="528" width="3" height="42"/><rect x="326" y="534" width="3" height="36"/>
          <rect x="334" y="542" width="3" height="28"/><rect x="342" y="548" width="3" height="22"/>
          <rect x="350" y="550" width="3" height="20"/><rect x="358" y="547" width="3" height="23"/>
          <rect x="366" y="540" width="3" height="30"/><rect x="374" y="526" width="3" height="44"/>
          <rect x="382" y="511" width="3" height="59"/><rect x="390" y="492" width="3" height="78"/>
          <rect x="398" y="469" width="3" height="101"/><rect x="406" y="450" width="3" height="120"/>
          <rect x="414" y="428" width="3" height="142"/><rect x="422" y="406" width="3" height="164"/>
          <rect x="430" y="437" width="3" height="133"/><rect x="438" y="453" width="3" height="117"/>
          <rect x="446" y="472" width="3" height="98"/><rect x="454" y="492" width="3" height="78"/>
          <rect x="462" y="508" width="3" height="62"/><rect x="470" y="520" width="3" height="50"/>
          <rect x="478" y="528" width="3" height="42"/><rect x="486" y="535" width="3" height="35"/>
          <rect x="494" y="540" width="3" height="30"/><rect x="502" y="534" width="3" height="36"/>
          <rect x="510" y="526" width="3" height="44"/><rect x="518" y="515" width="3" height="55"/>
          <rect x="526" y="500" width="3" height="70"/><rect x="534" y="480" width="3" height="90"/>
          <rect x="542" y="462" width="3" height="108"/><rect x="550" y="444" width="3" height="126"/>
          <rect x="558" y="426" width="3" height="144"/><rect x="566" y="409" width="3" height="161"/>
          <rect x="574" y="438" width="3" height="132"/><rect x="582" y="455" width="3" height="115"/>
          <rect x="590" y="472" width="3" height="98"/><rect x="598" y="490" width="3" height="80"/>
          <rect x="606" y="505" width="3" height="65"/><rect x="614" y="518" width="3" height="52"/>
          <rect x="622" y="529" width="3" height="41"/><rect x="630" y="538" width="3" height="32"/>
          <rect x="638" y="544" width="3" height="26"/><rect x="646" y="550" width="3" height="20"/>
          <rect x="654" y="548" width="3" height="22"/><rect x="662" y="542" width="3" height="28"/>
          <rect x="670" y="536" width="3" height="34"/><rect x="678" y="528" width="3" height="42"/>
          <rect x="686" y="520" width="3" height="50"/><rect x="694" y="512" width="3" height="58"/>
          <rect x="702" y="505" width="3" height="65"/><rect x="710" y="498" width="3" height="72"/>
          <rect x="718" y="492" width="3" height="78"/><rect x="726" y="488" width="3" height="82"/>
          <rect x="734" y="500" width="3" height="70"/><rect x="742" y="512" width="3" height="58"/>
          <rect x="750" y="523" width="3" height="47"/><rect x="758" y="532" width="3" height="38"/>
          <rect x="766" y="538" width="3" height="32"/><rect x="774" y="543" width="3" height="27"/>
          <rect x="782" y="548" width="3" height="22"/><rect x="790" y="550" width="3" height="20"/>
          <rect x="798" y="551" width="3" height="19"/><rect x="806" y="548" width="3" height="22"/>
          <rect x="814" y="544" width="3" height="26"/><rect x="822" y="540" width="3" height="30"/>
          <rect x="830" y="536" width="3" height="34"/><rect x="838" y="532" width="3" height="38"/>
          <rect x="846" y="528" width="3" height="42"/><rect x="854" y="526" width="3" height="44"/>
          <rect x="862" y="523" width="3" height="47"/><rect x="870" y="525" width="3" height="45"/>
          <rect x="878" y="529" width="3" height="41"/><rect x="886" y="533" width="3" height="37"/>
          <rect x="894" y="537" width="3" height="33"/><rect x="902" y="541" width="3" height="29"/>
          <rect x="910" y="545" width="3" height="25"/><rect x="918" y="548" width="3" height="22"/>
          <rect x="926" y="551" width="3" height="19"/><rect x="934" y="553" width="3" height="17"/>
          <rect x="942" y="551" width="3" height="19"/><rect x="950" y="548" width="3" height="22"/>
          <rect x="958" y="545" width="3" height="25"/><rect x="966" y="541" width="3" height="29"/>
          <rect x="974" y="538" width="3" height="32"/><rect x="982" y="536" width="3" height="34"/>
          <rect x="990" y="534" width="3" height="36"/><rect x="998" y="535" width="3" height="35"/>
          <rect x="1006" y="538" width="3" height="32"/><rect x="1014" y="541" width="3" height="29"/>
          <rect x="1022" y="544" width="3" height="26"/><rect x="1030" y="548" width="3" height="22"/>
          <rect x="1038" y="551" width="3" height="19"/><rect x="1046" y="553" width="3" height="17"/>
          <rect x="1054" y="554" width="3" height="16"/><rect x="1062" y="552" width="3" height="18"/>
          <rect x="1070" y="550" width="3" height="20"/><rect x="1078" y="548" width="3" height="22"/>
          <rect x="1086" y="546" width="3" height="24"/><rect x="1094" y="545" width="3" height="25"/>
          <rect x="1102" y="544" width="3" height="26"/><rect x="1110" y="545" width="3" height="25"/>
          <rect x="1118" y="547" width="3" height="23"/><rect x="1126" y="550" width="3" height="20"/>
          <rect x="1134" y="552" width="3" height="18"/><rect x="1142" y="554" width="3" height="16"/>
          <rect x="1150" y="555" width="3" height="15"/><rect x="1158" y="556" width="3" height="14"/>
          <rect x="1166" y="557" width="3" height="13"/><rect x="1174" y="558" width="3" height="12"/>
          <rect x="1182" y="559" width="3" height="11"/><rect x="1190" y="560" width="3" height="10"/>
          <rect x="1198" y="561" width="3" height="9"/><rect x="1206" y="562" width="3" height="8"/>
          <rect x="1214" y="563" width="3" height="7"/><rect x="1222" y="564" width="3" height="6"/>
          <rect x="1230" y="565" width="3" height="5"/><rect x="1238" y="566" width="3" height="4"/>
        </g>
      </g>

      <!-- Main curve -->
      <g id="desire-curve-juce-paint">
        <path d="M 160 548
                 C 260 512, 362 470, 444 430
                 C 535 385, 590 292, 655 303
                 C 720 315, 748 375, 815 403
                 C 903 441, 1008 468, 1100 500
                 C 1175 526, 1237 551, 1296 566"
              fill="none" stroke="#ff2990" stroke-width="16" opacity="0.18"/>
        <path d="M 160 548
                 C 260 512, 362 470, 444 430
                 C 535 385, 590 292, 655 303
                 C 720 315, 748 375, 815 403
                 C 903 441, 1008 468, 1100 500
                 C 1175 526, 1237 551, 1296 566"
              fill="none" stroke="#ff4ba7" stroke-width="3.2" stroke-linecap="round"/>
        <path d="M 160 548
                 C 260 512, 362 470, 444 430
                 C 535 385, 590 292, 655 303
                 C 720 315, 748 375, 815 403
                 C 903 441, 1008 468, 1100 500
                 C 1175 526, 1237 551, 1296 566"
              fill="none" stroke="#ffd5ed" stroke-width="1.1" stroke-linecap="round" opacity="0.95"/>

        <g id="curve-nodes-juce-paint">
          <circle cx="520" cy="385" r="12" fill="#090a10" stroke="#fcecf6" stroke-width="2"/>
          <circle cx="520" cy="385" r="3.8" fill="#ff48a5"/>
          <circle cx="891" cy="453" r="12" fill="#090a10" stroke="#fcecf6" stroke-width="2"/>
          <circle cx="891" cy="453" r="3.8" fill="#ff48a5"/>
        </g>
      </g>

      <!-- Dancer -->
      <g id="dancer-base" fill="none" stroke-linecap="round" stroke-linejoin="round">
        <line x1="696" y1="105" x2="696" y2="608" stroke="#ff4ca8" stroke-width="2.2" opacity="0.9"/>
        <line x1="700" y1="105" x2="700" y2="608" stroke="#ffbfdc" stroke-width="0.8" opacity="0.8"/>

        <g id="dancer-glow-juce-paint" stroke="#ff3f9d" opacity="0.9">
          <path d="M 696 149
                   C 704 141, 711 140, 715 147
                   C 718 153, 713 163, 709 169
                   C 724 168, 740 169, 755 175
                   C 775 183, 791 200, 797 220
                   C 803 239, 795 260, 778 272
                   C 758 286, 737 290, 721 307
                   C 708 320, 700 342, 701 366
                   C 702 389, 710 406, 720 423
                   C 728 436, 733 449, 731 464
                   C 728 482, 715 497, 707 510
                   C 699 524, 695 545, 699 566
                   C 702 582, 699 598, 692 608"/>
          <path d="M 715 168
                   C 706 177, 701 190, 698 205
                   C 697 215, 696 226, 696 239"/>
          <path d="M 755 175
                   C 766 160, 783 159, 795 170
                   C 804 178, 808 190, 805 200"/>
          <path d="M 785 188
                   C 800 195, 808 210, 809 226
                   C 811 245, 803 262, 790 276"/>
          <path d="M 778 273
                   C 767 285, 767 303, 778 315
                   C 790 328, 806 340, 820 351
                   C 834 362, 845 376, 855 391"/>
          <path d="M 721 307
                   C 704 302, 688 307, 675 320
                   C 659 336, 650 360, 647 384
                   C 644 408, 651 430, 663 446"/>
          <path d="M 663 446
                   C 672 458, 682 464, 693 465
                   C 706 466, 718 460, 731 452"/>
          <path d="M 699 566
                   C 695 575, 688 585, 679 593
                   C 671 600, 665 607, 663 615"/>
          <path d="M 855 391
                   C 843 391, 834 387, 827 380
                   C 817 369, 807 357, 795 346"/>
          <path d="M 678 319
                   C 664 318, 648 320, 631 327
                   C 611 336, 595 349, 583 367"/>
          <path d="M 583 367
                   C 572 379, 563 388, 552 392"/>
        </g>

        <g stroke="#ffd1e8" stroke-width="1.7" opacity="0.96">
          <path d="M 696 149
                   C 704 141, 711 140, 715 147
                   C 718 153, 713 163, 709 169
                   C 724 168, 740 169, 755 175
                   C 775 183, 791 200, 797 220
                   C 803 239, 795 260, 778 272
                   C 758 286, 737 290, 721 307
                   C 708 320, 700 342, 701 366
                   C 702 389, 710 406, 720 423
                   C 728 436, 733 449, 731 464
                   C 728 482, 715 497, 707 510
                   C 699 524, 695 545, 699 566
                   C 702 582, 699 598, 692 608"/>
          <path d="M 755 175 C 766 160, 783 159, 795 170 C 804 178, 808 190, 805 200"/>
          <path d="M 721 307 C 704 302, 688 307, 675 320 C 659 336, 650 360, 647 384 C 644 408, 651 430, 663 446"/>
          <path d="M 663 446 C 672 458, 682 464, 693 465 C 706 466, 718 460, 731 452"/>
          <path d="M 699 566 C 695 575, 688 585, 679 593 C 671 600, 665 607, 663 615"/>
          <path d="M 778 273 C 767 285, 767 303, 778 315 C 790 328, 806 340, 820 351 C 834 362, 845 376, 855 391"/>
          <path d="M 678 319 C 664 318, 648 320, 631 327 C 611 336, 595 349, 583 367 C 572 379, 563 388, 552 392"/>
        </g>

        <!-- hair strokes -->
        <g stroke="#ff4aa4" stroke-width="1.7" opacity="0.82">
          <path d="M 796 173 C 826 185, 840 206, 834 231 C 831 247, 823 259, 813 271"/>
          <path d="M 800 179 C 836 193, 850 219, 841 246 C 837 260, 830 272, 819 284"/>
          <path d="M 802 188 C 840 208, 851 236, 839 261 C 834 272, 827 281, 818 291"/>
          <path d="M 794 181 C 812 195, 816 213, 811 230"/>
        </g>
      </g>

      <!-- display control mini panel -->
      <g id="display-options">
        <rect x="1145" y="122" width="121" height="139" rx="9" fill="#090a11" fill-opacity="0.86" stroke="#2b2e39"/>
        <rect x="1158" y="133" width="96" height="27" rx="5" fill="#0d0f17" stroke="#242733"/>
        <text x="1170" y="152" fill="#b7b2c0" font-size="12" font-family="Arial">SPECTRUM</text>
        <path d="M 1238 143 l 5 5 l 5 -5" fill="none" stroke="#bbb7c4" stroke-width="1.4"/>
        <rect x="1158" y="164" width="96" height="27" rx="5" fill="#0d0f17" stroke="#242733"/>
        <text x="1170" y="183" fill="#ff63b4" font-size="13" font-family="Arial" font-weight="700">PRE</text>
        <path d="M 1238 174 l 5 5 l 5 -5" fill="none" stroke="#bbb7c4" stroke-width="1.4"/>
        <text x="1159" y="215" fill="#c6c1cd" font-size="12" font-family="Arial">LF</text>
        <text x="1250" y="215" text-anchor="end" fill="#ff6bb8" font-size="12" font-family="Arial">20.0 Hz</text>
        <text x="1159" y="244" fill="#c6c1cd" font-size="12" font-family="Arial">HF</text>
        <text x="1250" y="244" text-anchor="end" fill="#ff6bb8" font-size="12" font-family="Arial">20.0 kHz</text>
      </g>

      <!-- freq labels -->
      <g fill="#a7a2ae" font-family="Arial" font-size="13">
        <text x="199" y="602">20</text><text x="314" y="602">50</text><text x="406" y="602">100</text>
        <text x="503" y="602">200</text><text x="627" y="602">500</text><text x="756" y="602">1k</text>
        <text x="875" y="602">2k</text><text x="1005" y="602">5k</text><text x="1111" y="602">10k</text>
        <text x="1215" y="602">20k</text>
      </g>

      <!-- lower mode strip -->
      <rect x="280" y="618" width="886" height="61" rx="10" fill="#0b0c13" fill-opacity="0.92" stroke="#3a3342"/>
      <line x1="542" y1="629" x2="542" y2="669" stroke="#4a4551" stroke-opacity="0.5"/>
      <line x1="844" y1="629" x2="844" y2="669" stroke="#4a4551" stroke-opacity="0.5"/>
      <g font-family="Arial" font-size="15" letter-spacing="2">
        <text x="414" y="657" text-anchor="middle" fill="#b3afba">♢  INTIMATE</text>
        <text x="694" y="657" text-anchor="middle" fill="#ff62b4" font-weight="700">∿  CLUB</text>
        <text x="1005" y="657" text-anchor="middle" fill="#b3afba">☾  AFTER DARK</text>
      </g>

      <!-- glass reflection -->
      <path d="M 160 105 H 1296 V 176 C 1100 150, 950 150, 805 165 C 640 183, 450 171, 160 128 Z"
            fill="#ffffff" opacity="0.025"/>
    </g>
  </g>

  <!-- ==================== LOWER CONTROL PANEL ==================== -->
  <g id="control-panel">
    <rect x="16" y="712" width="1424" height="245" fill="url(#panelGradient)" stroke="#303340" stroke-width="1.5"/>
    <path d="M 16 714 H 1439" stroke="#6f4c6a" stroke-opacity="0.55"/>

    <!-- Labels -->
    <g fill="#f2f0f6" font-family="Arial" font-size="15" letter-spacing="1.2" text-anchor="middle">
      <text x="96" y="758">INPUT</text>
      <text x="236" y="758">BODY</text>
      <text x="376" y="758">HEAT</text>
      <text x="516" y="758">SILK</text>
      <text x="925" y="758">MOTION</text>
      <text x="1065" y="758">WIDTH</text>
      <text x="1205" y="758">MIX</text>
      <text x="1350" y="758">OUTPUT</text>
    </g>

    <!-- Small knobs -->
    <g id="knobs">
      <g transform="translate(96 823) rotate(0)"><use href="#smallKnobSymbol"/></g>
      <g transform="translate(236 823) rotate(-20)"><use href="#smallKnobSymbol"/></g>
      <g transform="translate(376 823) rotate(26)"><use href="#smallKnobSymbol"/></g>
      <g transform="translate(516 823) rotate(7)"><use href="#smallKnobSymbol"/></g>
      <g transform="translate(925 823) rotate(-15)"><use href="#smallKnobSymbol"/></g>
      <g transform="translate(1065 823) rotate(-5)"><use href="#smallKnobSymbol"/></g>
      <g transform="translate(1205 823) rotate(-18)"><use href="#smallKnobSymbol"/></g>
      <g transform="translate(1350 823) rotate(0)"><use href="#smallKnobSymbol"/></g>
    </g>

    <!-- Main Desire -->
    <g id="desire-knob">
      <path d="M 632 713 Q 728 669 824 713 L 789 760 H 667 Z"
            fill="#11121a" stroke="#3b2d3c"/>
      <text x="728" y="724" text-anchor="middle" fill="#ff62b4"
            font-family="Arial" font-size="27" letter-spacing="5">DESIRE</text>
      <g transform="translate(728 831) rotate(33)">
        <use href="#largeKnobSymbol"/>
      </g>
    </g>

    <!-- Value readouts -->
    <g font-family="Arial" font-size="15" text-anchor="middle">
      <g>
        <rect x="54" y="891" width="84" height="30" rx="5" fill="#090a10" stroke="#232630"/>
        <text x="96" y="912" fill="#c8c3d3">0.0 dB</text>
      </g>
      <g>
        <rect x="194" y="891" width="84" height="30" rx="5" fill="#090a10" stroke="#232630"/>
        <text x="236" y="912" fill="#c8c3d3">65 %</text>
      </g>
      <g>
        <rect x="334" y="891" width="84" height="30" rx="5" fill="#090a10" stroke="#232630"/>
        <text x="376" y="912" fill="#c8c3d3">72 %</text>
      </g>
      <g>
        <rect x="474" y="891" width="84" height="30" rx="5" fill="#090a10" stroke="#232630"/>
        <text x="516" y="912" fill="#c8c3d3">58 %</text>
      </g>
      <g>
        <rect x="675" y="915" width="106" height="31" rx="6" fill="#090a10" stroke="#343746"/>
        <text x="728" y="937" fill="#aaa8ff" font-size="17">76 %</text>
      </g>
      <g>
        <rect x="883" y="891" width="84" height="30" rx="5" fill="#090a10" stroke="#232630"/>
        <text x="925" y="912" fill="#c8c3d3">64 %</text>
      </g>
      <g>
        <rect x="1023" y="891" width="84" height="30" rx="5" fill="#090a10" stroke="#232630"/>
        <text x="1065" y="912" fill="#c8c3d3">128 %</text>
      </g>
      <g>
        <rect x="1163" y="891" width="84" height="30" rx="5" fill="#090a10" stroke="#232630"/>
        <text x="1205" y="912" fill="#c8c3d3">42 %</text>
      </g>
      <g>
        <rect x="1308" y="891" width="84" height="30" rx="5" fill="#090a10" stroke="#232630"/>
        <text x="1350" y="912" fill="#c8c3d3">0.0 dB</text>
      </g>
    </g>

    <!-- Dry/wet line -->
    <text x="1126" y="940" fill="#aaa5b4" font-family="Arial" font-size="11">DRY</text>
    <line x1="1163" y1="936" x2="1260" y2="936" stroke="#4a4550" stroke-width="3" stroke-linecap="round"/>
    <line x1="1163" y1="936" x2="1232" y2="936" stroke="#ff50aa" stroke-width="3" stroke-linecap="round"/>
    <circle cx="1232" cy="936" r="3.5" fill="#ffd1e9"/>
    <text x="1272" y="940" fill="#aaa5b4" font-family="Arial" font-size="11">WET</text>
  </g>

  <!-- ==================== FOOTER ==================== -->
  <g id="footer">
    <rect x="16" y="966" width="1424" height="42" rx="10" fill="#07080d" stroke="#31343f"/>
    <line x1="32" y1="983" x2="594" y2="983" stroke="#ff4ca8" stroke-opacity="0.55"/>
    <line x1="862" y1="983" x2="1424" y2="983" stroke="#ff4ca8" stroke-opacity="0.55"/>
    <text x="728" y="990" text-anchor="middle" fill="#aaa5b4" font-family="Arial" font-size="12" letter-spacing="8">BORATO COMPANY</text>
  </g>
</svg>
